HIERARCHY
ROOT SpineBase
{
  OFFSET 0.000000 0.000000 0.000000
  CHANNELS 6 Xposition Yposition Zposition Zrotation Xrotation Yrotation
  JOINT SpineMid
  {
    OFFSET -0.000000 29.941451 0.000000
    CHANNELS 3 Zrotation Xrotation Yrotation
    JOINT SpineShoulder
    {
      OFFSET 0.106004 22.360842 -0.832952
      CHANNELS 3 Zrotation Xrotation Yrotation
      JOINT Neck
      {
        OFFSET 0.016873 7.441417 -0.636758
        CHANNELS 3 Zrotation Xrotation Yrotation
        JOINT Head
        {
          OFFSET -1.832106 12.879823 1.409738
          CHANNELS 3 Zrotation Xrotation Yrotation
          End Site
          {
            OFFSET 0 0 0
          }
        }
      }
      JOINT ShoulderLeft
      {
        OFFSET -13.456274 -7.974969 17.367488
        CHANNELS 3 Zrotation Xrotation Yrotation
        JOINT ElbowLeft
        {
          OFFSET 8.504007 -16.738564 -20.504950
          CHANNELS 3 Zrotation Xrotation Yrotation
          JOINT WristLeft
          {
            OFFSET 2.254459 23.856770 -1.978408
            CHANNELS 3 Zrotation Xrotation Yrotation
            JOINT HandLeft
            {
              OFFSET 0.816459 6.862153 -0.104540
              CHANNELS 3 Zrotation Xrotation Yrotation
              JOINT HandTipLeft
              {
                OFFSET 0.975604 7.987597 -2.375308
                CHANNELS 3 Zrotation Xrotation Yrotation
                End Site
                {
                  OFFSET 0 0 0
                }
              }
              JOINT ThumbLeft
              {
                OFFSET -4.520647 2.372337 -1.771457
                CHANNELS 3 Zrotation Xrotation Yrotation
                End Site
                {
                  OFFSET 0 0 0
                }
              }
            }
          }
        }
      }
      JOINT ShoulderRight
      {
        OFFSET 7.086948 -3.171984 -4.354700
        CHANNELS 3 Zrotation Xrotation Yrotation
        JOINT ElbowRight
        {
          OFFSET -16.762961 -28.011226 -6.830605
          CHANNELS 3 Zrotation Xrotation Yrotation
          JOINT WristRight
          {
            OFFSET -13.547614 -20.177449 -1.596454
            CHANNELS 3 Zrotation Xrotation Yrotation
            JOINT HandRight
            {
              OFFSET -3.958444 -6.205551 -0.381279
              CHANNELS 3 Zrotation Xrotation Yrotation
              JOINT HandTipRight
              {
                OFFSET -1.202814 -5.766310 -0.921923
                CHANNELS 3 Zrotation Xrotation Yrotation
                End Site
                {
                  OFFSET 0 0 0
                }
              }
              JOINT ThumbRight
              {
                OFFSET -0.787566 0.722403 -2.311232
                CHANNELS 3 Zrotation Xrotation Yrotation
                End Site
                {
                  OFFSET 0 0 0
                }
              }
            }
          }
        }
      }
    }
  }
  JOINT HipLeft
  {
    OFFSET -4.699886 1.966416 -4.351798
    CHANNELS 3 Zrotation Xrotation Yrotation
    JOINT KneeLeft
    {
      OFFSET -8.316998 -26.474005 -5.691921
      CHANNELS 3 Zrotation Xrotation Yrotation
      JOINT AnkleLeft
      {
        OFFSET -6.159624 -21.298292 4.644363
        CHANNELS 3 Zrotation Xrotation Yrotation
        JOINT FootLeft
        {
          OFFSET 7.133502 1.130978 -11.088453
          CHANNELS 3 Zrotation Xrotation Yrotation
          End Site
          {
            OFFSET 0 0 0
          }
        }
      }
    }
  }
  JOINT HipRight
  {
    OFFSET 4.256149 0.634697 -2.277739
    CHANNELS 3 Zrotation Xrotation Yrotation
    JOINT KneeRight
    {
      OFFSET -2.738345 -23.877598 -3.615260
      CHANNELS 3 Zrotation Xrotation Yrotation
      JOINT AnkleRight
      {
        OFFSET 6.626560 -24.228910 5.010676
        CHANNELS 3 Zrotation Xrotation Yrotation
        JOINT FootRight
        {
          OFFSET -9.442686 -0.146805 -11.185401
          CHANNELS 3 Zrotation Xrotation Yrotation
          End Site
          {
            OFFSET 0 0 0
          }
        }
      }
    }
  }
}
MOTION
Frames: 6
Frame Time: 0.033333
30.115592 61.912700 323.019893 0.000000 0.000000 -13.038839 -0.000000 0.000000 13.038839 -0.000000 0.000000 0.000000 -0.000000 0.000000 0.000000 0.000000 0.000000 0.000000 -0.000000 0.000000 0.000000 -0.000000 0.000000 0.000000 -0.000000 0.000000 0.000000 -0.000000 0.000000 0.000000 0.000000 0.000000 0.000000 0.000000 0.000000 0.000000 -0.000000 0.000000 0.000000 -0.000000 0.000000 0.000000 -0.000000 0.000000 0.000000 -0.000000 0.000000 0.000000 0.000000 0.000000 0.000000 0.000000 0.000000 0.000000 -0.000000 0.000000 13.038839 -0.000000 0.000000 0.000000 -0.000000 0.000000 0.000000 0.000000 0.000000 0.000000 -0.000000 0.000000 13.038839 -0.000000 0.000000 0.000000 -0.000000 0.000000 0.000000 0.000000 0.000000 0.000000
30.130445 62.145488 322.502695 -0.095391 0.327432 -14.617308 0.174937 -0.292760 14.618028 -0.000000 0.000000 0.000000 -0.000000 0.000000 0.000000 0.000000 0.000000 0.000000 -0.000000 0.000000 0.000000 -0.000000 0.000000 0.000000 -0.000000 0.000000 0.000000 -1.685872 -0.138948 -0.485395 0.000000 0.000000 0.000000 0.000000 0.000000 0.000000 5.736065 -2.271347 0.075965 -11.299714 5.585940 -1.219016 12.582269 -2.757118 1.715352 -14.315432 -0.223564 1.658480 0.000000 0.000000 0.000000 0.000000 0.000000 0.000000 -1.432794 -1.237302 15.139882 3.963566 0.999753 -0.259333 -3.135617 -0.573327 -8.962001 0.000000 0.000000 0.000000 -1.100040 0.037886 14.715568 -4.907827 6.829494 1.052856 9.131159 -11.699759 -7.914254 0.000000 0.000000 0.000000
30.079628 62.334464 322.034067 -0.259459 0.610935 -15.838182 0.416361 -0.516920 15.841443 -0.000000 0.000000 0.000000 0.189102 -1.163946 -0.184511 0.000000 0.000000 0.000000 -0.000000 0.000000 0.000000 -0.000000 0.000000 0.000000 -0.000000 0.000000 0.000000 -2.955284 -0.289685 -0.847788 0.000000 0.000000 0.000000 0.000000 0.000000 0.000000 11.540917 -4.463244 0.322305 -22.593733 10.659804 -1.231759 24.714452 -4.615205 4.081441 -26.553782 -0.416070 2.873308 0.000000 0.000000 0.000000 0.000000 0.000000 0.000000 -2.443297 -2.411958 16.791913 7.977371 2.348025 -0.582792 -6.446620 -1.639177 -14.644267 0.000000 0.000000 0.000000 -1.931771 0.144338 16.001472 -9.429853 12.644968 2.569443 17.562081 -23.409265 -15.782224 0.000000 0.000000 0.000000
29.963139 62.479627 321.614009 -0.492642 0.848709 -16.716627 0.715988 -0.671097 16.724469 -0.000000 0.000000 0.000000 0.316067 -1.501427 -0.244292 0.000000 0.000000 0.000000 -0.000000 0.000000 0.000000 -0.000000 0.000000 0.000000 -0.000000 0.000000 0.000000 -3.835299 -0.460074 -1.094342 0.000000 0.000000 0.000000 0.000000 0.000000 0.000000 17.172715 -6.455187 0.696049 -33.567889 14.782574 -0.200037 35.891308 -5.575510 6.612137 -36.670167 -0.400664 3.746475 0.000000 0.000000 0.000000 0.000000 0.000000 0.000000 -3.044104 -3.461204 18.023528 12.116323 4.046479 -0.990094 -10.137369 -3.252355 -18.105563 0.000000 0.000000 0.000000 -2.470089 0.353373 16.914421 -13.256555 17.092496 4.195435 24.748028 -34.107903 -23.600330 0.000000 0.000000 0.000000
29.780981 62.580978 321.242521 -0.794840 1.039274 -17.265793 0.501424 -0.030681 17.259966 0.177805 0.005958 0.002965 0.613209 -2.543659 -0.260176 0.000000 0.000000 0.000000 0.147460 -0.866991 0.015689 -0.000000 0.000000 0.000000 0.918040 0.322276 -0.026967 -5.264945 -0.978955 -1.232975 0.000000 0.000000 0.000000 0.000000 0.000000 0.000000 22.592855 -8.945247 1.471444 -43.837300 17.678094 1.556037 45.740315 -5.862654 8.901174 -44.729044 -0.075270 4.389284 0.000000 0.000000 0.000000 0.000000 0.000000 0.000000 -3.252653 -4.341976 18.860237 16.487660 6.119900 -1.526686 -14.408344 -5.489126 -19.938172 0.000000 0.000000 0.000000 -2.692989 0.687302 17.469275 -16.213293 20.145146 5.618443 30.014686 -42.847458 -31.221202 0.000000 0.000000 0.000000
29.533151 62.638517 320.919602 -1.165397 1.181492 -17.496459 0.648228 0.022233 17.488113 0.210293 -0.016726 -0.003797 0.968019 -2.681365 -0.256630 0.000000 0.000000 0.000000 0.330588 -0.990759 0.033369 -0.000000 0.000000 0.000000 1.238223 0.090806 0.007088 -5.743302 -0.969334 -1.274632 0.000000 0.000000 0.000000 0.000000 0.000000 0.000000 27.421044 -10.355439 1.999906 -53.005275 19.264599 3.643283 54.065391 -5.801096 10.709309 -50.838318 0.615278 4.885931 0.000000 0.000000 0.000000 0.000000 0.000000 0.000000 -3.088701 -5.029643 19.321999 21.236043 8.605303 -2.272849 -19.482623 -8.472117 -20.383974 0.000000 0.000000 0.000000 -2.581700 1.155885 17.676328 -18.248984 21.941735 6.641714 32.840103 -49.008695 -38.530225 0.000000 0.000000 0.000000
